<?xml version="1.0" encoding="utf-8"?>
<!-- Generator: Adobe Illustrator 25.2.3, SVG Export Plug-In . SVG Version: 6.00 Build 0)  -->
<svg version="1.1" id="Capa_1" xmlns="http://www.w3.org/2000/svg" xmlns:xlink="http://www.w3.org/1999/xlink" x="0px" y="0px"
	 viewBox="0 0 477.65 430.21" style="enable-background:new 0 0 477.65 430.21;" xml:space="preserve">
<style type="text/css">
	.st0{fill:#411E4D;}
	.st1{fill:#DC3545;}
	.st2{fill:#E06110;}
	.st3{fill:#7DC6B3;}
</style>
<g>
	<path class="st0" d="M178.13,25.25l50.61,114.06l-10.69,25.66c0,0-47.05-32.79-64.87-26.38l0.71,16.4l-13.54-2.14l-0.71,125.47
		c0,0,44.2,4.28,62.02,29.23l1.07,0.89l-1.25,12.83l-45.27-0.53l-37.96,95.88h-10.69c0,0,7.84-58.46-56.79-89.58L178.13,25.25z"/>
	<path class="st1" d="M44.82,339.98c0,0,46.69,12.83,50.26,75.56H13.81L44.82,339.98z"/>
	<path class="st2" d="M178.13,154.28c0,0,65.94,27.09,74.85,83.76s-34.57,101.94-51.33,117.98c0,0,15.49-60.38,16.04-83.76
		C218.23,249.62,219.48,206.32,178.13,154.28z"/>
	<path class="st1" d="M407.67,299.7c0,0-21.62-22.57-65.58-32.55c0,0-12.12-2.38-27.8,0.24c0,0-51.8,2.38-88.63,94.81l1.43,1.43
		c0,0,45.33-43.96,82.22-57.33C309.3,306.3,342.27,292.57,407.67,299.7z"/>
	<path class="st3" d="M185.14,10.28l7.96-0.12c0,0,14.5,44.55,58.93,70.69c0,0,25.66,21.39,74.38,23.29l73.19,174.65
		c0,0-41.11-28.75-84.12-22.57l-0.95-117.15c0,0-38.97,1.9-60.83,26.38L185.14,10.28z"/>
	<path class="st3" d="M313.22,318.95c0,0,53.82-23.52,100.87-3.56l43.13,101.58H352.07L313.22,318.95z"/>
	<path class="st2" d="M286.84,10.63h-80.2c0,0,25.66,72.71,113.7,80.2L286.84,10.63z"/>
</g>
</svg>
